<?xml version="1.0" standalone="no"?>
<!DOCTYPE svg PUBLIC "-//W3C//DTD SVG 20010904//EN"
 "http://www.w3.org/TR/2001/REC-SVG-20010904/DTD/svg10.dtd">
<svg version="1.0" xmlns="http://www.w3.org/2000/svg"
 width="788.000000pt" height="788.000000pt" viewBox="0 0 788.000000 788.000000"
 preserveAspectRatio="xMidYMid meet">
<metadata>
Created by potrace 1.14, written by Peter Selinger 2001-2017
</metadata>
<g transform="translate(0.000000,788.000000) scale(0.100000,-0.100000)"
fill="#000000" stroke="none">
<path d="M1250 6400 l-22 -5 1 -350 c0 -193 0 -395 1 -451 l0 -100 492 0 492
1 1 -320 0 -320 535 -1 c294 -1 542 0 550 2 14 4 16 90 16 774 0 526 -3 770
-11 771 -64 3 -2040 3 -2055 -1z m1885 -758 c0 -350 -4 -586 -9 -590 -5 -3
-113 -7 -240 -8 -127 -1 -292 -4 -366 -5 l-135 -3 0 329 -1 329 -469 1 c-259
1 -473 3 -477 3 -9 3 -8 516 2 522 4 3 388 5 852 5 l843 0 0 -583z"/>
<path d="M5056 6403 c-1 -1 -147 -3 -325 -5 -188 -2 -325 -7 -329 -12 -5 -9
-7 -256 -2 -281 1 -6 1 -14 0 -20 -1 -5 -1 -46 0 -90 1 -44 2 -87 1 -95 0 -8
0 -46 0 -85 4 -611 7 -961 8 -966 0 -3 246 -5 546 -5 l545 1 1 190 c0 104 1
243 1 307 0 64 -3 121 -6 126 -3 5 7 9 22 10 15 0 29 1 32 2 19 8 245 24 325
24 69 -1 201 -10 240 -18 73 -14 157 -42 209 -68 60 -30 176 -136 176 -161 0
-6 6 -24 14 -38 28 -53 40 -198 25 -284 -4 -22 -10 -58 -13 -79 -8 -49 -52
-149 -86 -196 -41 -57 -101 -106 -168 -140 -35 -17 -71 -33 -81 -35 -10 -2
-36 -8 -57 -14 -91 -26 -332 -33 -609 -16 -209 12 -4048 4 -4105 -9 -14 -3
-45 -9 -70 -12 -130 -17 -326 -78 -479 -150 -361 -171 -607 -437 -739 -804
-42 -116 -62 -196 -78 -320 -4 -25 -7 -49 -8 -55 -1 -5 -4 -14 -8 -20 -6 -11
-2 -477 5 -516 32 -170 65 -283 117 -395 163 -354 496 -575 975 -650 11 -2 47
-6 80 -9 33 -3 78 -7 100 -10 22 -2 103 -4 180 -4 77 1 518 2 980 2 l840 2 0
866 1 866 -124 1 c-68 0 -126 2 -128 5 -3 3 -21 1 -40 -3 -19 -5 -37 -4 -40 1
-3 5 -10 7 -15 3 -8 -4 -216 -6 -389 -3 -8 0 -60 0 -115 0 -137 -1 -133 -1
-195 0 l-55 0 0 -432 c0 -421 0 -431 -20 -442 -11 -6 -20 -9 -20 -7 0 3 -70
-6 -118 -16 -83 -16 -321 -22 -447 -11 -225 19 -409 96 -506 213 -79 94 -108
190 -107 354 0 47 3 103 6 125 3 22 8 57 12 79 3 21 8 43 12 50 4 6 9 20 10
31 8 49 78 166 137 228 85 87 248 162 398 182 15 2 35 6 45 9 10 3 65 8 123
11 93 5 3560 10 3585 5 6 -1 12 -2 15 -1 3 0 205 3 450 5 245 3 461 7 480 10
116 17 127 19 230 43 450 103 774 365 916 740 14 37 27 73 28 78 2 6 8 28 14
50 6 22 14 54 16 70 3 17 8 41 11 55 3 14 8 50 11 80 3 30 7 71 9 90 5 43 6
324 1 365 -2 17 -7 59 -10 95 -4 36 -9 72 -11 80 -2 8 -7 31 -10 50 -3 19 -8
43 -11 52 -3 9 -6 25 -8 35 -10 50 -62 188 -101 268 -121 246 -335 433 -600
524 -64 22 -180 50 -230 56 -16 2 -53 6 -80 10 -88 10 -184 15 -435 20 -250 6
-950 12 -954 8z"/>
<path d="M7254 3499 c-26 -29 -132 -99 -150 -99 -8 0 -14 -3 -14 -8 0 -7 -48
-31 -73 -36 -6 -2 -25 -8 -42 -15 -35 -14 -196 -58 -240 -65 -35 -6 -96 -14
-151 -22 -48 -6 -172 -13 -276 -15 l-78 -2 6 -30 c2 -17 7 -34 10 -39 3 -5 7
-18 10 -31 2 -12 20 -78 39 -147 20 -69 37 -132 39 -140 5 -19 43 -158 62
-227 8 -29 20 -77 28 -105 37 -134 88 -318 102 -363 8 -27 17 -61 20 -75 2
-14 9 -36 14 -50 5 -14 16 -50 24 -80 11 -43 60 -218 91 -330 3 -8 10 -36 16
-62 6 -27 16 -49 22 -49 51 -6 1117 -3 1117 3 0 9 -28 115 -91 343 -12 44 -34
125 -48 180 -15 55 -30 106 -35 113 -4 7 -6 16 -3 19 3 3 1 17 -5 32 -5 14
-18 58 -28 96 -10 39 -24 87 -30 109 -6 21 -13 46 -15 55 -2 9 -13 50 -25 91
-11 41 -23 84 -26 95 -6 25 -8 29 -23 85 -7 25 -15 52 -17 60 -2 8 -15 56 -29
105 -14 50 -27 99 -30 110 -5 23 -12 50 -55 205 -18 63 -33 120 -34 125 -8 41
-52 185 -57 185 -3 0 -14 -10 -25 -21z m-58 -282 c8 -37 64 -238 68 -245 3 -5
7 -19 9 -33 5 -22 19 -79 78 -299 11 -41 26 -97 34 -125 7 -27 18 -62 23 -76
6 -15 8 -30 5 -33 -3 -3 -1 -11 4 -18 6 -7 13 -26 16 -43 6 -29 14 -63 77
-295 17 -63 45 -165 61 -227 16 -62 32 -118 35 -126 5 -15 -52 -17 -536 -20
l-225 -2 -22 75 c-12 41 -38 129 -58 195 -20 66 -38 127 -40 135 -2 8 -16 56
-31 105 -14 50 -27 95 -29 100 -1 6 -5 17 -8 25 -7 16 -86 289 -118 403 -10
37 -21 72 -24 77 -4 6 -9 23 -11 38 -3 15 -16 63 -29 107 -36 125 -36 125 -12
126 41 1 137 14 217 28 30 6 66 12 80 15 100 17 296 76 375 112 50 23 57 23
61 1z"/>
<path d="M4487 3243 c-4 -3 -25 -6 -49 -7 l-42 -1 3 -70 c1 -38 2 -82 2 -97
-1 -30 -1 -170 0 -190 0 -7 -1 -316 -2 -686 -1 -370 1 -676 5 -680 4 -4 254
-7 556 -7 l548 -1 -1 863 -2 864 -23 6 c-12 3 -38 3 -57 1 -19 -2 -35 0 -35 5
0 4 -5 5 -10 2 -13 -8 -389 -10 -396 -2 -3 2 -21 1 -40 -3 -19 -5 -37 -4 -40
1 -3 5 -10 7 -15 3 -13 -8 -374 -8 -387 0 -5 3 -12 3 -15 -1z m862 -866 c-2
-444 -6 -690 -12 -694 -13 -8 -760 -8 -773 -1 -7 5 -12 1347 -5 1378 0 3 179
5 396 5 l395 0 -1 -688z"/>
</g>
</svg>
