<?xml version="1.0" standalone="no"?>
<!DOCTYPE svg PUBLIC "-//W3C//DTD SVG 20010904//EN"
 "http://www.w3.org/TR/2001/REC-SVG-20010904/DTD/svg10.dtd">
<svg version="1.0" xmlns="http://www.w3.org/2000/svg"
 width="600.000000pt" height="600.000000pt" viewBox="0 0 600.000000 600.000000"
 preserveAspectRatio="xMidYMid meet">
<metadata>
Created by potrace 1.11, written by Peter Selinger 2001-2013
</metadata>
<g transform="translate(0.000000,600.000000) scale(0.100000,-0.100000)"
fill="#000000" stroke="none">
<path d="M923 5112 l-23 -3 0 -350 0 -349 404 0 403 0 1 -312 c1 -172 1 -320
1 -329 1 -15 39 -16 403 -15 l403 1 0 678 0 677 -40 0 c-240 3 -1536 4 -1552
2z"/>
<path d="M3590 5103 c-8 -1 -71 -4 -140 -5 l-125 -3 0 -655 0 -655 403 0 402
-1 1 46 c0 25 1 137 2 249 l2 204 25 5 c56 11 347 6 400 -7 187 -45 287 -111
345 -228 26 -53 29 -68 29 -163 1 -119 -5 -152 -39 -226 -62 -134 -205 -216
-420 -239 -146 -16 -365 -18 -1775 -20 -1425 -1 -1541 -2 -1615 -19 -403 -88
-689 -308 -850 -650 -58 -124 -105 -278 -120 -401 -4 -27 -10 -77 -15 -110
-20 -155 -4 -435 34 -602 117 -511 476 -867 951 -942 33 -5 367 -10 745 -10
l685 -1 0 742 0 743 -403 3 -402 2 -1 -52 c0 -29 -1 -177 -1 -329 l0 -277 -51
-7 c-29 -4 -108 -9 -177 -10 -308 -6 -491 90 -561 293 -15 44 -18 77 -15 171
10 353 172 529 556 603 50 9 449 13 1758 14 1769 2 1758 2 1886 46 62 21 177
75 186 87 3 4 21 17 40 28 44 27 137 121 191 193 95 127 177 342 205 535 3 28
9 59 11 70 12 49 10 454 -3 540 -49 333 -153 565 -333 745 -147 147 -335 244
-556 286 -37 7 -1221 14 -1255 7z"/>
<path d="M5430 2350 c-68 -68 -234 -147 -369 -176 -107 -22 -242 -42 -289 -43
-20 -1 -23 -5 -18 -28 3 -16 8 -53 11 -83 8 -71 12 -107 25 -205 13 -104 19
-151 26 -200 16 -124 35 -273 39 -295 2 -14 11 -81 20 -150 8 -69 18 -141 21
-161 2 -20 7 -54 9 -75 15 -119 36 -258 39 -262 4 -3 582 -5 769 -3 35 1 37 3
33 29 -2 15 -8 47 -11 72 -4 25 -9 54 -11 65 -3 17 -9 56 -19 120 -2 11 -6 43
-9 70 -4 28 -9 57 -11 65 -2 8 -7 35 -10 60 -3 25 -8 52 -10 60 -2 8 -7 40
-10 70 -3 30 -8 62 -10 70 -2 8 -7 35 -10 60 -3 25 -8 52 -10 60 -2 8 -6 38
-10 65 -6 51 -9 70 -25 165 -5 30 -12 73 -15 95 -3 22 -14 94 -24 160 -11 66
-29 185 -41 265 -12 80 -25 152 -28 160 -6 12 -17 6 -52 -30z"/>
<path d="M3415 2172 l-90 -3 0 -749 0 -750 402 0 403 0 1 23 c4 129 0 1469 -4
1473 -6 7 -557 11 -712 6z"/>
</g>
</svg>
