<?xml version="1.0" standalone="no"?>
<!DOCTYPE svg PUBLIC "-//W3C//DTD SVG 20010904//EN"
 "http://www.w3.org/TR/2001/REC-SVG-20010904/DTD/svg10.dtd">
<svg version="1.0" xmlns="http://www.w3.org/2000/svg"
 width="700.000000pt" height="700.000000pt" viewBox="0 0 700.000000 700.000000"
 preserveAspectRatio="xMidYMid meet">
<metadata>
Created by potrace 1.11, written by Peter Selinger 2001-2013
</metadata>
<g transform="translate(0.000000,700.000000) scale(0.100000,-0.100000)"
fill="#000000" stroke="none">
<path d="M1219 5726 c-1 -1 -2 -171 -3 -379 -1 -328 1 -378 14 -381 8 -2 196
-3 417 -2 281 2 403 -1 406 -8 2 -6 3 -154 2 -329 l0 -318 457 2 c252 1 459 5
459 8 4 21 3 1394 -1 1400 -4 5 -1742 12 -1751 7z m1646 -87 c4 -4 9 -1039 6
-1194 l-1 -40 -360 0 -360 0 -1 30 c0 16 -2 158 -4 315 -2 157 -4 292 -4 300
-1 13 -54 15 -407 17 -223 1 -407 3 -410 5 -7 7 -9 547 -2 554 4 4 303 9 665
11 361 2 658 5 659 6 5 4 214 0 219 -4z"/>
<path d="M4207 5684 c-1 -2 -71 -4 -155 -6 l-152 -3 0 -647 0 -647 460 0 460
0 1 22 c0 12 1 123 2 247 l2 225 60 6 c68 8 350 3 410 -6 74 -12 186 -45 238
-71 149 -75 217 -188 211 -350 -8 -219 -135 -349 -399 -409 -146 -33 -433 -38
-2295 -40 -899 0 -1651 -4 -1670 -8 -19 -4 -51 -9 -70 -12 -79 -12 -261 -70
-360 -114 -485 -216 -742 -638 -744 -1221 -1 -479 196 -875 556 -1115 108 -72
253 -141 335 -160 10 -2 45 -12 78 -21 149 -40 193 -42 1006 -43 628 -1 788 1
791 11 2 7 4 337 4 733 l-1 720 -462 3 -463 2 1 -321 c0 -177 -2 -323 -4 -325
-17 -17 -348 -25 -463 -12 -140 17 -287 81 -355 155 -65 71 -91 140 -97 252
-13 302 139 508 438 594 47 14 105 28 130 31 25 3 56 8 68 11 83 16 394 19
2102 19 1780 1 1910 2 1975 19 234 58 374 133 512 272 165 167 264 393 301
683 14 114 5 513 -12 541 -2 3 -7 22 -10 41 -32 207 -173 480 -318 616 -155
147 -384 263 -598 303 -30 6 -71 13 -90 17 -32 7 -1416 14 -1423 8z"/>
<path d="M6299 3000 c-90 -66 -299 -134 -479 -155 -25 -3 -63 -8 -85 -11 -32
-4 -141 -9 -296 -14 -14 0 -15 -6 -9 -32 10 -44 54 -208 90 -338 28 -99 172
-627 226 -825 14 -49 27 -97 29 -105 2 -8 15 -58 30 -110 14 -52 29 -104 34
-115 8 -20 17 -20 477 -19 258 1 473 2 477 3 5 0 5 6 1 12 -5 9 -40 134 -58
209 -5 18 -52 199 -155 585 -90 339 -142 536 -146 555 -15 66 -98 366 -103
372 -4 4 -19 -2 -33 -12z m-17 -166 c19 -67 80 -302 88 -334 4 -19 22 -87 39
-150 30 -113 89 -336 136 -515 13 -49 35 -133 49 -185 13 -52 34 -131 46 -175
11 -44 23 -88 26 -97 5 -17 -17 -18 -375 -18 -210 0 -381 2 -381 5 0 5 -11 47
-61 233 -11 42 -32 120 -46 172 -14 52 -39 145 -55 205 -25 95 -47 178 -62
235 -4 16 -44 166 -51 190 -69 254 -83 320 -67 321 10 1 35 2 57 4 44 2 171
15 195 20 8 2 36 6 62 9 76 10 227 52 303 84 39 16 74 29 79 28 6 -1 14 -16
18 -32z"/>
<path d="M3914 2822 l-21 -3 -1 -752 c0 -414 1 -761 3 -772 4 -20 12 -20 467
-20 l463 0 3 773 c1 424 -1 772 -5 773 -24 2 -891 4 -909 1z m826 -499 c1
-230 2 -539 3 -688 l2 -270 -378 -3 -379 -2 3 682 3 683 25 5 c14 3 182 6 372
8 l347 2 2 -417z"/>
</g>
</svg>
